<svg xmlns="http://www.w3.org/2000/svg" width="95" height="25" viewBox="0 0 496 120"><g fill="none" fill-rule="evenodd" stroke="none" stroke-width="1"><g fill="#0097A7"><circle cx="72" cy="24" r="8"></circle><path d="M16 72l.004-.25A8 8 0 0132 72v24a8 8 0 11-16 0V72z"></path><path d="M16 24l.004-.25A8 8 0 0132 24v24a8 8 0 11-16 0V24z"></path><path d="M40 24l.004-.25A8 8 0 0156 24v48a8 8 0 11-16 0V24z"></path><path d="M88 24l.004-.25A8 8 0 01104 24v72a8 8 0 11-16 0V24z"></path><path d="M64 48l.004-.25A8 8 0 0180 48v48a8 8 0 11-16 0V48z"></path><circle cx="48" cy="96" r="8"></circle></g><g fill="#FFF" transform="translate(112 12)"><g fill-rule="nonzero" transform="translate(24 22)"><path d="M312.094 14.758c3.529 0 6.566.76 9.112 2.278 2.546 1.519 4.478 3.596 5.795 6.231 1.318 2.635 1.977 5.561 1.977 8.777 0 1.027-.067 2.01-.201 2.948h-25.661c.447 2.725 1.53 4.79 3.25 6.198 1.72 1.407 3.785 2.11 6.197 2.11 2.01 0 3.74-.435 5.192-1.306a9.65 9.65 0 003.45-3.518l7.103 3.484c-3.484 6.075-8.777 9.112-15.88 9.112-3.394 0-6.453-.782-9.178-2.345-2.725-1.563-4.858-3.718-6.399-6.465-1.54-2.748-2.311-5.84-2.311-9.28 0-3.26.76-6.287 2.278-9.078 1.519-2.792 3.618-5.014 6.298-6.667 2.68-1.653 5.673-2.479 8.978-2.479zm.067 7.169c-2.1 0-3.897.614-5.394 1.843-1.496 1.228-2.58 2.892-3.25 4.991h17.019c-.09-1.072-.48-2.133-1.173-3.183-.692-1.05-1.652-1.92-2.88-2.613-1.229-.692-2.67-1.038-4.322-1.038zM272.66 14.758c3.081 0 5.884.77 8.408 2.312 2.524 1.54 4.5 3.696 5.93 6.465 1.429 2.77 2.143 5.896 2.143 9.38 0 3.529-.714 6.666-2.144 9.413-1.429 2.748-3.405 4.891-5.93 6.432-2.523 1.542-5.326 2.312-8.408 2.312-2.322 0-4.388-.491-6.197-1.474-1.81-.983-3.16-2.211-4.054-3.685v18.559h-8.777V15.83h8.777v4.154c.938-1.474 2.3-2.713 4.087-3.719 1.787-1.005 3.842-1.507 6.164-1.507zm-1.066 8.174c-1.608 0-3.126.413-4.556 1.24-1.43.826-2.568 1.998-3.417 3.517-.848 1.519-1.273 3.26-1.273 5.226 0 1.965.425 3.707 1.273 5.226.849 1.519 1.988 2.702 3.417 3.551 1.43.849 2.948 1.273 4.556 1.273a8.899 8.899 0 004.623-1.273c1.43-.849 2.569-2.032 3.417-3.551.849-1.519 1.273-3.26 1.273-5.226 0-1.965-.424-3.707-1.273-5.226-.848-1.519-1.987-2.691-3.417-3.517a9.081 9.081 0 00-4.623-1.24zM245.47 15.83V50h-8.778V15.83h8.777zM241.113.755c1.564 0 2.892.547 3.987 1.642 1.094 1.094 1.641 2.423 1.641 3.986 0 1.563-.547 2.903-1.641 4.02-1.095 1.117-2.423 1.675-3.987 1.675-1.563 0-2.903-.558-4.02-1.675-1.116-1.117-1.675-2.457-1.675-4.02 0-1.563.559-2.892 1.675-3.986 1.117-1.095 2.457-1.642 4.02-1.642zM214.43 2.028c3.038 0 5.807.636 8.309 1.91 2.501 1.273 4.466 3.06 5.896 5.36 1.429 2.3 2.144 4.924 2.144 7.872 0 2.948-.715 5.583-2.144 7.906-1.43 2.323-3.395 4.12-5.896 5.393-2.502 1.274-5.271 1.91-8.308 1.91h-7.84V50h-9.044V2.028h16.884zm.269 8.576h-8.107v13.199h8.107c2.233 0 3.986-.648 5.26-1.943 1.272-1.295 1.909-2.859 1.909-4.69 0-1.831-.637-3.383-1.91-4.657-1.273-1.273-3.026-1.909-5.26-1.909zM172.009 14.758c5.226 0 9.2 1.206 11.926 3.618 2.724 2.412 4.087 5.94 4.087 10.586V50h-9.18v-3.484c-1.027 1.34-2.378 2.434-4.053 3.283-1.675.849-3.607 1.273-5.795 1.273-3.619 0-6.589-1.06-8.911-3.183-2.323-2.121-3.484-4.902-3.484-8.341 0-2.278.602-4.288 1.809-6.03 1.206-1.742 2.858-3.082 4.958-4.02 2.099-.938 4.421-1.407 6.968-1.407 3.528 0 6.543.514 9.045 1.541v-1.474c0-1.876-.704-3.395-2.111-4.556-1.407-1.161-3.294-1.742-5.661-1.742-1.609 0-3.16.368-4.657 1.105-1.496.738-2.736 1.709-3.718 2.915l-5.628-4.422c1.652-2.144 3.73-3.797 6.23-4.958 2.502-1.161 5.226-1.742 8.175-1.742zm.2 19.698c-4.556 0-6.833 1.697-6.833 5.092 0 1.385.49 2.512 1.474 3.383.982.872 2.39 1.307 4.22 1.307 2.547 0 4.568-.815 6.064-2.446 1.496-1.63 2.245-3.54 2.245-5.728a16.64 16.64 0 00-7.17-1.608zM150.194 15.83V50h-8.777V15.83h8.777zM145.84.755c1.564 0 2.892.547 3.987 1.642 1.094 1.094 1.641 2.423 1.641 3.986 0 1.563-.547 2.903-1.641 4.02-1.095 1.117-2.423 1.675-3.987 1.675-1.563 0-2.903-.558-4.02-1.675-1.117-1.117-1.675-2.457-1.675-4.02 0-1.563.558-2.892 1.675-3.986 1.117-1.095 2.457-1.642 4.02-1.642zM132.363 2.028V50h-8.71v-4.087c-.894 1.474-2.245 2.702-4.054 3.685-1.809.983-3.875 1.474-6.197 1.474-3.082 0-5.885-.77-8.409-2.312-2.523-1.54-4.511-3.684-5.963-6.431-1.451-2.748-2.177-5.885-2.177-9.414 0-3.484.726-6.61 2.177-9.38 1.452-2.77 3.44-4.924 5.963-6.465 2.524-1.542 5.327-2.312 8.409-2.312 2.322 0 4.377.502 6.164 1.508 1.786 1.005 3.149 2.244 4.087 3.718V2.028h8.71zm-18.03 20.904c-1.608 0-3.127.413-4.556 1.24-1.43.826-2.568 1.998-3.417 3.517-.849 1.519-1.273 3.26-1.273 5.226 0 1.965.424 3.707 1.273 5.226.849 1.519 1.988 2.702 3.417 3.551 1.43.849 2.948 1.273 4.556 1.273a8.899 8.899 0 004.623-1.273c1.43-.849 2.568-2.032 3.417-3.551.849-1.519 1.273-3.26 1.273-5.226 0-1.965-.424-3.707-1.273-5.226-.849-1.519-1.988-2.691-3.417-3.517a9.081 9.081 0 00-4.623-1.24zM74.531 14.758c3.53 0 6.566.76 9.112 2.278 2.546 1.519 4.478 3.596 5.796 6.231 1.318 2.635 1.976 5.561 1.976 8.777 0 1.027-.067 2.01-.2 2.948H65.552c.447 2.725 1.53 4.79 3.25 6.198 1.72 1.407 3.785 2.11 6.197 2.11 2.01 0 3.741-.435 5.193-1.306a9.65 9.65 0 003.45-3.518l7.102 3.484c-3.484 6.075-8.776 9.112-15.879 9.112-3.394 0-6.454-.782-9.179-2.345-2.724-1.563-4.857-3.718-6.398-6.465-1.541-2.748-2.312-5.84-2.312-9.28 0-3.26.76-6.287 2.278-9.078 1.52-2.792 3.618-5.014 6.298-6.667 2.68-1.653 5.673-2.479 8.978-2.479zm.067 7.169c-2.099 0-3.897.614-5.393 1.843-1.496 1.228-2.58 2.892-3.25 4.991h17.018c-.089-1.072-.48-2.133-1.172-3.183-.692-1.05-1.653-1.92-2.881-2.613-1.228-.692-2.669-1.038-4.322-1.038z"></path><path d="M0.01 2.028L11.668 2.028 24.398 35.729 24.934 35.729 37.664 2.028 49.389 2.028 49.389 50 40.411 50 40.411 26.349 40.947 18.376 40.411 18.376 28.217 50 21.182 50 8.921 18.376 8.385 18.376 8.921 26.349 8.921 50 0.01 50z"></path></g></g></g></svg>