<svg width="219" height="35" viewBox="0 0 219 35" fill="none" xmlns="http://www.w3.org/2000/svg">
<rect x="61" y="10.376" width="15.1277" height="33.5846" rx="7.56387" transform="rotate(-43 61 10.376)" fill="url(#paint0_linear_1350_2059)"/>
<rect x="96.5801" width="15.1277" height="33.5836" rx="7.56387" transform="rotate(43 96.5801 0)" fill="url(#paint1_linear_1350_2059)"/>
<circle cx="68.8654" cy="27.2756" r="4.58416" fill="url(#paint2_linear_1350_2059)"/>
<circle cx="99.8439" cy="27.2756" r="4.58416" fill="url(#paint3_linear_1350_2059)"/>
<path d="M2.57031 12.7812L2.875 14.1406V26H0.015625V12.7812H2.57031ZM13.6328 12.6406C14.1641 12.6406 14.6641 12.75 15.1328 12.9688C15.6016 13.1719 16.0078 13.4688 16.3516 13.8594C16.7109 14.25 16.9844 14.7188 17.1719 15.2656C17.375 15.7969 17.4766 16.375 17.4766 17V26H14.6641V18.8047C14.6641 18.2734 14.6562 17.7734 14.6406 17.3047C14.6406 16.8203 14.5938 16.3906 14.5 16.0156C14.4062 15.6406 14.25 15.3516 14.0312 15.1484C13.8281 14.9297 13.5078 14.8203 13.0703 14.8203C12.9609 14.8203 12.7266 14.8438 12.3672 14.8906C12.0078 14.9375 11.5938 15.0703 11.125 15.2891V13.4375C11.5469 13.1875 11.9766 12.9922 12.4141 12.8516C12.8516 12.7109 13.2578 12.6406 13.6328 12.6406ZM9.57812 14.4453C9.76562 14.7266 9.89844 15.0312 9.97656 15.3594C10.0703 15.6719 10.125 16 10.1406 16.3438C10.1719 16.6875 10.1797 17.0469 10.1641 17.4219C10.1641 17.7812 10.1641 18.1641 10.1641 18.5703V26H7.32812V18.8047C7.32812 18.2734 7.32812 17.7734 7.32812 17.3047C7.32812 16.8203 7.28125 16.3906 7.1875 16.0156C7.09375 15.6406 6.9375 15.3516 6.71875 15.1484C6.5 14.9297 6.17969 14.8203 5.75781 14.8203C5.57031 14.8203 5.28906 14.8594 4.91406 14.9375C4.55469 15 4.19531 15.1172 3.83594 15.2891V13.4375C4.21094 13.2188 4.60938 13.0391 5.03125 12.8984C5.46875 12.7578 5.89844 12.6875 6.32031 12.6875C7.03906 12.6875 7.64062 12.8359 8.125 13.1328C8.625 13.4297 9.10938 13.8672 9.57812 14.4453Z" fill="white"/>
<path d="M27.6484 12.6641C28.4922 12.7422 29.25 12.9688 29.9219 13.3438C30.6094 13.7188 31.1953 14.2031 31.6797 14.7969C32.1641 15.3906 32.5312 16.0703 32.7812 16.8359C33.0469 17.6016 33.1797 18.3984 33.1797 19.2266C33.1797 19.6016 33.1562 19.9766 33.1094 20.3516H25.0703V18.2891H30.4844C30.4844 17.8828 30.4141 17.4922 30.2734 17.1172C30.1484 16.7422 29.9531 16.3984 29.6875 16.0859C29.4375 15.7578 29.1406 15.4844 28.7969 15.2656C28.4531 15.0469 28.0703 14.9141 27.6484 14.8672V12.6641ZM27.5547 23.7969C27.7266 23.7969 27.9375 23.7812 28.1875 23.75C28.4531 23.7031 28.7266 23.6328 29.0078 23.5391C29.3047 23.4297 29.5938 23.2969 29.875 23.1406C30.1719 22.9844 30.4297 22.7969 30.6484 22.5781L31.6797 24.1484C31.1641 24.7891 30.5625 25.2734 29.875 25.6016C29.1875 25.9297 28.3125 26.0938 27.25 26.0938C26.3906 26.0938 25.5859 25.9219 24.8359 25.5781C24.0859 25.2188 23.4453 24.7344 22.9141 24.125C22.3828 23.5156 21.9609 22.8047 21.6484 21.9922C21.3359 21.1797 21.1797 20.3047 21.1797 19.3672C21.1797 18.4766 21.3203 17.6328 21.6016 16.8359C21.8984 16.0391 22.2969 15.3438 22.7969 14.75C23.2969 14.1406 23.875 13.6484 24.5312 13.2734C25.2031 12.8984 25.9219 12.6875 26.6875 12.6406V14.8906C26.1094 15 25.6328 15.2344 25.2578 15.5938C24.8828 15.9531 24.5859 16.3672 24.3672 16.8359C24.1641 17.2891 24.0156 17.7578 23.9219 18.2422C23.8438 18.7266 23.8047 19.1406 23.8047 19.4844C23.8047 20.0938 23.875 20.6641 24.0156 21.1953C24.1719 21.7109 24.4062 22.1641 24.7188 22.5547C25.0312 22.9297 25.4141 23.2344 25.8672 23.4688C26.3359 23.6875 26.8984 23.7969 27.5547 23.7969Z" fill="white"/>
<path d="M40.8438 21.9922C40.8438 22.5234 40.9141 22.9375 41.0547 23.2344C41.1953 23.5312 41.3906 23.7578 41.6406 23.9141C41.9062 24.0703 42.1953 24.1719 42.5078 24.2188C42.8359 24.25 43.1797 24.2656 43.5391 24.2656V26C43.3359 26.0312 43.1328 26.0547 42.9297 26.0703C42.7578 26.0859 42.5469 26.0938 42.2969 26.0938C42.0625 26.1094 41.8281 26.1172 41.5938 26.1172C41.3594 26.1172 41.1172 26.1094 40.8672 26.0938C40.6328 26.0781 40.4297 26.0547 40.2578 26.0234C39.7266 25.9297 39.3125 25.7031 39.0156 25.3438C38.7188 24.9688 38.4922 24.5625 38.3359 24.125C38.1953 23.6719 38.1016 23.2344 38.0547 22.8125C38.0234 22.3906 38.0078 22.0625 38.0078 21.8281V14.7031H36.2734V12.7812H38.0078V9.03125H40.8438V12.7812H42.9531V14.7031H40.8438V21.9922Z" fill="white"/>
<path d="M49.1641 22.0156C49.1641 22.7188 49.3047 23.2422 49.5859 23.5859C49.8828 23.9297 50.3047 24.1328 50.8516 24.1953V26.0938C50.7891 26.1094 50.6875 26.1172 50.5469 26.1172C50.0156 26.1172 49.5 26.0469 49 25.9062C48.5156 25.7656 48.0859 25.5391 47.7109 25.2266C47.3359 24.9141 47.0391 24.5 46.8203 23.9844C46.6172 23.4688 46.5156 22.8359 46.5156 22.0859C46.5156 21.3672 46.6641 20.75 46.9609 20.2344C47.2734 19.7031 47.6641 19.2734 48.1328 18.9453C48.6172 18.6016 49.1641 18.3516 49.7734 18.1953C50.3828 18.0234 51 17.9375 51.625 17.9375H52.6562V19.6016H52.1406C51.8281 19.6016 51.5 19.6328 51.1562 19.6953C50.8125 19.7578 50.4922 19.875 50.1953 20.0469C49.8984 20.2188 49.6484 20.4688 49.4453 20.7969C49.2578 21.1094 49.1641 21.5156 49.1641 22.0156ZM56.4531 22.0859C56.4531 22.2109 56.4609 22.3984 56.4766 22.6484C56.4922 22.8828 56.5234 23.125 56.5703 23.375C56.6172 23.625 56.6875 23.8516 56.7812 24.0547C56.8906 24.2578 57.0312 24.3906 57.2031 24.4531L56.4531 26.0234C56.25 26.0234 56.0312 25.9766 55.7969 25.8828C55.5781 25.7891 55.3594 25.6562 55.1406 25.4844C54.9375 25.3125 54.7578 25.125 54.6016 24.9219C54.4609 24.7031 54.3516 24.4688 54.2734 24.2188C54.1172 24.6094 53.8047 24.9609 53.3359 25.2734C52.8828 25.5703 52.375 25.7891 51.8125 25.9297V24.1484C52.1875 24.0703 52.5234 23.9219 52.8203 23.7031C53.1328 23.4688 53.3984 23.1953 53.6172 22.8828V17.9375C53.6172 17.1719 53.5781 16.5625 53.5 16.1094C53.4219 15.6562 53.2891 15.3281 53.1016 15.125C52.9141 14.9062 52.6797 14.7734 52.3984 14.7266C52.1328 14.6641 51.8125 14.6328 51.4375 14.6328C51.0938 14.6328 50.7656 14.6797 50.4531 14.7734C50.1562 14.8516 49.875 14.9531 49.6094 15.0781C49.3594 15.1875 49.1328 15.3125 48.9297 15.4531C48.7422 15.5938 48.6016 15.7031 48.5078 15.7812L47.4531 14.1641C47.6094 13.9922 47.8438 13.8203 48.1562 13.6484C48.4688 13.4609 48.8281 13.2969 49.2344 13.1562C49.6406 13.0156 50.0781 12.9062 50.5469 12.8281C51.0312 12.7344 51.5312 12.6875 52.0469 12.6875C52.5156 12.6875 52.9688 12.7344 53.4062 12.8281C53.8594 12.9219 54.2656 13.0781 54.625 13.2969C55 13.5156 55.3203 13.8125 55.5859 14.1875C55.8672 14.5469 56.0625 15 56.1719 15.5469C56.2812 16.0938 56.3516 16.6484 56.3828 17.2109C56.4297 17.7578 56.4531 18.3047 56.4531 18.8516V21.8984V22.0859Z" fill="white"/>
<path d="M120.906 12.0547C120.531 11.6016 120.102 11.2734 119.617 11.0703C119.133 10.8672 118.633 10.7656 118.117 10.7656H118.023V8.44531H118.047C118.984 8.44531 119.859 8.60156 120.672 8.91406C121.484 9.22656 122.211 9.69531 122.852 10.3203L120.906 12.0547ZM110.852 17.2812C110.852 15.9375 111.008 14.75 111.32 13.7188C111.633 12.6719 112.062 11.7891 112.609 11.0703C113.156 10.3359 113.812 9.75781 114.578 9.33594C115.344 8.91406 116.172 8.64844 117.062 8.53906V10.8828C116.594 11.0078 116.156 11.2188 115.75 11.5156C115.359 11.8125 115.008 12.2266 114.695 12.7578C114.398 13.2734 114.164 13.9062 113.992 14.6562C113.82 15.3906 113.727 16.2656 113.711 17.2812C113.727 18.2969 113.82 19.1875 113.992 19.9531C114.164 20.7188 114.398 21.3828 114.695 21.9453C115.008 22.4922 115.359 22.9297 115.75 23.2578C116.156 23.5859 116.594 23.8125 117.062 23.9375V26.0703C116.172 25.9609 115.344 25.6953 114.578 25.2734C113.812 24.8359 113.156 24.25 112.609 23.5156C112.062 22.7812 111.633 21.8984 111.32 20.8672C111.008 19.8203 110.852 18.625 110.852 17.2812ZM123.742 17.0938V23.7734C123.383 24.2266 122.977 24.6016 122.523 24.8984C122.086 25.1797 121.617 25.4141 121.117 25.6016C120.633 25.7891 120.125 25.9219 119.594 26C119.078 26.0781 118.562 26.1172 118.047 26.1172H118.023V24.0547C118.211 24.0547 118.438 24.0469 118.703 24.0312C118.984 24 119.266 23.9609 119.547 23.9141C119.844 23.8516 120.117 23.7734 120.367 23.6797C120.633 23.5859 120.828 23.4531 120.953 23.2812V19.0156H118.023V17.0938H123.742Z" fill="white"/>
<path d="M140.172 12.7812C139.312 15.0781 138.547 17.1172 137.875 18.8984C137.203 20.6641 136.617 22.2188 136.117 23.5625C135.617 24.8906 135.172 26.0156 134.781 26.9375C134.406 27.8594 134.055 28.625 133.727 29.2344C133.414 29.8594 133.117 30.3438 132.836 30.6875C132.555 31.0469 132.266 31.3203 131.969 31.5078C131.672 31.6953 131.344 31.8047 130.984 31.8359C130.641 31.8828 130.242 31.9062 129.789 31.9062C129.648 31.9062 129.484 31.8828 129.297 31.8359C129.109 31.8047 128.922 31.7578 128.734 31.6953C128.562 31.6484 128.406 31.5938 128.266 31.5312C128.125 31.4844 128.031 31.4531 127.984 31.4375C128.047 31.1562 128.109 30.8906 128.172 30.6406C128.219 30.4219 128.266 30.2109 128.312 30.0078C128.375 29.8203 128.422 29.6875 128.453 29.6094C128.578 29.6094 128.766 29.6484 129.016 29.7266C129.281 29.8047 129.477 29.8438 129.602 29.8438C129.852 29.8438 130.07 29.8281 130.258 29.7969C130.461 29.7812 130.641 29.7109 130.797 29.5859C130.953 29.4766 131.102 29.3047 131.242 29.0703C131.383 28.8516 131.539 28.5312 131.711 28.1094L132.602 26L137.312 12.7812H140.172ZM132.109 24.7578L127.188 12.7812H130.023L133.398 21.6641L133.07 22.4609L132.109 24.7578Z" fill="white"/>
<path d="M145.727 12.7812L146.031 14.1406V26H143.172V12.7812H145.727ZM156.789 12.6406C157.32 12.6406 157.82 12.75 158.289 12.9688C158.758 13.1719 159.164 13.4688 159.508 13.8594C159.867 14.25 160.141 14.7188 160.328 15.2656C160.531 15.7969 160.633 16.375 160.633 17V26H157.82V18.8047C157.82 18.2734 157.812 17.7734 157.797 17.3047C157.797 16.8203 157.75 16.3906 157.656 16.0156C157.562 15.6406 157.406 15.3516 157.188 15.1484C156.984 14.9297 156.664 14.8203 156.227 14.8203C156.117 14.8203 155.883 14.8438 155.523 14.8906C155.164 14.9375 154.75 15.0703 154.281 15.2891V13.4375C154.703 13.1875 155.133 12.9922 155.57 12.8516C156.008 12.7109 156.414 12.6406 156.789 12.6406ZM152.734 14.4453C152.922 14.7266 153.055 15.0312 153.133 15.3594C153.227 15.6719 153.281 16 153.297 16.3438C153.328 16.6875 153.336 17.0469 153.32 17.4219C153.32 17.7812 153.32 18.1641 153.32 18.5703V26H150.484V18.8047C150.484 18.2734 150.484 17.7734 150.484 17.3047C150.484 16.8203 150.438 16.3906 150.344 16.0156C150.25 15.6406 150.094 15.3516 149.875 15.1484C149.656 14.9297 149.336 14.8203 148.914 14.8203C148.727 14.8203 148.445 14.8594 148.07 14.9375C147.711 15 147.352 15.1172 146.992 15.2891V13.4375C147.367 13.2188 147.766 13.0391 148.188 12.8984C148.625 12.7578 149.055 12.6875 149.477 12.6875C150.195 12.6875 150.797 12.8359 151.281 13.1328C151.781 13.4297 152.266 13.8672 152.734 14.4453Z" fill="white"/>
<path d="M167.688 8.72656V23.8672H175.633V26H164.828V8.72656H167.688Z" fill="white"/>
<path d="M180.648 22.0156C180.648 22.7188 180.789 23.2422 181.07 23.5859C181.367 23.9297 181.789 24.1328 182.336 24.1953V26.0938C182.273 26.1094 182.172 26.1172 182.031 26.1172C181.5 26.1172 180.984 26.0469 180.484 25.9062C180 25.7656 179.57 25.5391 179.195 25.2266C178.82 24.9141 178.523 24.5 178.305 23.9844C178.102 23.4688 178 22.8359 178 22.0859C178 21.3672 178.148 20.75 178.445 20.2344C178.758 19.7031 179.148 19.2734 179.617 18.9453C180.102 18.6016 180.648 18.3516 181.258 18.1953C181.867 18.0234 182.484 17.9375 183.109 17.9375H184.141V19.6016H183.625C183.312 19.6016 182.984 19.6328 182.641 19.6953C182.297 19.7578 181.977 19.875 181.68 20.0469C181.383 20.2188 181.133 20.4688 180.93 20.7969C180.742 21.1094 180.648 21.5156 180.648 22.0156ZM187.938 22.0859C187.938 22.2109 187.945 22.3984 187.961 22.6484C187.977 22.8828 188.008 23.125 188.055 23.375C188.102 23.625 188.172 23.8516 188.266 24.0547C188.375 24.2578 188.516 24.3906 188.688 24.4531L187.938 26.0234C187.734 26.0234 187.516 25.9766 187.281 25.8828C187.062 25.7891 186.844 25.6562 186.625 25.4844C186.422 25.3125 186.242 25.125 186.086 24.9219C185.945 24.7031 185.836 24.4688 185.758 24.2188C185.602 24.6094 185.289 24.9609 184.82 25.2734C184.367 25.5703 183.859 25.7891 183.297 25.9297V24.1484C183.672 24.0703 184.008 23.9219 184.305 23.7031C184.617 23.4688 184.883 23.1953 185.102 22.8828V17.9375C185.102 17.1719 185.062 16.5625 184.984 16.1094C184.906 15.6562 184.773 15.3281 184.586 15.125C184.398 14.9062 184.164 14.7734 183.883 14.7266C183.617 14.6641 183.297 14.6328 182.922 14.6328C182.578 14.6328 182.25 14.6797 181.938 14.7734C181.641 14.8516 181.359 14.9531 181.094 15.0781C180.844 15.1875 180.617 15.3125 180.414 15.4531C180.227 15.5938 180.086 15.7031 179.992 15.7812L178.938 14.1641C179.094 13.9922 179.328 13.8203 179.641 13.6484C179.953 13.4609 180.312 13.2969 180.719 13.1562C181.125 13.0156 181.562 12.9062 182.031 12.8281C182.516 12.7344 183.016 12.6875 183.531 12.6875C184 12.6875 184.453 12.7344 184.891 12.8281C185.344 12.9219 185.75 13.0781 186.109 13.2969C186.484 13.5156 186.805 13.8125 187.07 14.1875C187.352 14.5469 187.547 15 187.656 15.5469C187.766 16.0938 187.836 16.6484 187.867 17.2109C187.914 17.7578 187.938 18.3047 187.938 18.8516V21.8984V22.0859Z" fill="white"/>
<path d="M194.945 12.7812L195.25 14.1172V26H192.414V12.7812H194.945ZM202.258 14.2344C202.523 14.5 202.727 14.8125 202.867 15.1719C203.023 15.5156 203.133 15.8828 203.195 16.2734C203.273 16.6484 203.32 17.0312 203.336 17.4219C203.352 17.8125 203.359 18.1953 203.359 18.5703V25.5312V26H200.5V18.8047C200.5 18.2734 200.477 17.7656 200.43 17.2812C200.383 16.7969 200.273 16.3672 200.102 15.9922C199.93 15.6172 199.695 15.3281 199.398 15.125C199.102 14.9062 198.688 14.7969 198.156 14.7969C197.938 14.7969 197.641 14.8359 197.266 14.9141C196.906 14.9766 196.555 15.0859 196.211 15.2422V13.4375C196.633 13.2188 197.086 13.0312 197.57 12.875C198.07 12.7188 198.555 12.6406 199.023 12.6406C199.727 12.6406 200.32 12.7891 200.805 13.0859C201.289 13.3672 201.773 13.75 202.258 14.2344Z" fill="white"/>
<path d="M218.289 7.78906V26H215.594L215.43 24.4297V7.78906H218.289ZM206.43 19.2031C206.43 17.9844 206.594 16.9609 206.922 16.1328C207.266 15.3047 207.703 14.6328 208.234 14.1172C208.766 13.6016 209.352 13.2344 209.992 13.0156C210.648 12.7812 211.289 12.6641 211.914 12.6641C212.398 12.6641 212.859 12.7188 213.297 12.8281C213.734 12.9375 214.125 13.0938 214.469 13.2969V15.7812C214.203 15.5 213.906 15.2734 213.578 15.1016C213.25 14.9297 212.883 14.8438 212.477 14.8438C211.992 14.8438 211.562 14.9688 211.188 15.2188C210.812 15.4531 210.492 15.7812 210.227 16.2031C209.977 16.625 209.781 17.1094 209.641 17.6562C209.5 18.2031 209.43 18.7891 209.43 19.4141C209.43 20.0391 209.508 20.625 209.664 21.1719C209.82 21.7031 210.031 22.1719 210.297 22.5781C210.562 22.9844 210.883 23.3047 211.258 23.5391C211.648 23.7734 212.07 23.8906 212.523 23.8906C213.289 23.8906 213.938 23.5859 214.469 22.9766V25.4141C214.094 25.6172 213.656 25.7891 213.156 25.9297C212.672 26.0547 212.156 26.1172 211.609 26.1172C210.984 26.1172 210.367 26.0078 209.758 25.7891C209.164 25.5547 208.633 25.1797 208.164 24.6641C207.57 23.9922 207.133 23.1641 206.852 22.1797C206.57 21.1797 206.43 20.1875 206.43 19.2031Z" fill="white"/>
<defs>
<linearGradient id="paint0_linear_1350_2059" x1="68.5639" y1="10.376" x2="68.5639" y2="43.9606" gradientUnits="userSpaceOnUse">
<stop stop-color="#FF74A6"/>
<stop offset="0.694949" stop-color="#FFCC9C"/>
</linearGradient>
<linearGradient id="paint1_linear_1350_2059" x1="104.144" y1="0" x2="104.144" y2="33.5836" gradientUnits="userSpaceOnUse">
<stop offset="0.208333" stop-color="#408CFD"/>
<stop offset="1" stop-color="#73F8F0"/>
</linearGradient>
<linearGradient id="paint2_linear_1350_2059" x1="68.8654" y1="22.6914" x2="68.8654" y2="31.8597" gradientUnits="userSpaceOnUse">
<stop stop-color="#F2A4FF"/>
<stop offset="1" stop-color="#FFCC9C"/>
</linearGradient>
<linearGradient id="paint3_linear_1350_2059" x1="99.8439" y1="22.6914" x2="99.8439" y2="31.8597" gradientUnits="userSpaceOnUse">
<stop stop-color="#1CC6FC"/>
<stop offset="1" stop-color="#C4FFFB"/>
</linearGradient>
</defs>
</svg>
